<svg xmlns="http://www.w3.org/2000/svg" viewBox="0 0 400 400"><path fill="#7a84f5" d="M119.406 94.3c-5.571 5.606-9.095 10.795-12.683 18.673-4.935 10.838-5.928 13.182-7.313 17.276-4.938 14.592-6.035 30.46-3.606 52.151 7.123 63.601 43.433 109.786 98.579 125.39 6.168 1.745 5.437 1.767 12.927-.383 53.102-15.241 89.135-60.243 97.052-121.207 3.653-28.136 1.629-46.691-7.187-65.863-7.1-15.441-9.178-18.889-15.252-25.308l-3.758-3.972-7.383 3.659c-26.482 13.123-49.057 12.772-67.527-1.051-2.036-1.523-3.1-2.09-3.447-1.834-11.706 8.624-19.184 11.587-31.208 12.364-12.362.798-28.56-3.476-42.166-11.128-4.101-2.306-3.387-2.431-7.028 1.233"/></svg>